<svg xmlns="http://www.w3.org/2000/svg" viewBox="0 0 200 150" width="100%" height="100%">
  <!-- Fondo ovalado oficial Mercado Pago -->
  <ellipse cx="100" cy="75" rx="90" ry="60" fill="#009EE3" stroke="#001E82" stroke-width="8"/>
  <!-- Manos estrechadas oficiales -->
  <g fill="#FFFFFF" stroke="#001E82" stroke-width="6" stroke-linecap="round" stroke-linejoin="round">
    <!-- Brazo izquierdo y mano -->
    <path d="M 20,68 C 50,72 65,52 88,52 C 104,52 128,75 142,82 C 148,85 148,93 140,96 C 132,99 122,94 116,88 L 105,98 C 98,104 90,99 86,94 L 76,102 C 70,106 62,102 60,94 C 54,98 46,96 44,88 C 30,86 20,80 20,68 Z" />
    <!-- Brazo derecho y pulgar cruzado -->
    <path d="M 180,68 C 150,70 135,46 112,46 C 96,46 82,58 74,68 C 70,74 74,80 82,78 C 92,75 106,62 122,64 C 136,66 156,76 180,68 Z" />
    <!-- Líneas de dedos entrelazados -->
    <path d="M 92,82 C 98,88 106,88 112,82" fill="none" />
    <path d="M 80,90 C 86,96 94,94 98,88" fill="none" />
    <path d="M 68,96 C 74,102 82,100 86,94" fill="none" />
  </g>
</svg>
